# xmcd
#
# Track frame offsets: 
#        150
#        14837
#        29962
#        39827
#        54175
#        64400
#        73762
#        84375
#        94012
#        115637
#        123837
#        133312
#        144225
#        152175
#        158587
#        167250
#        180812
#        194487
#        207750
#        244712
#
# Disc length: 3544 seconds
#
# Revision: 1
# Processed by: cddbd v1.4PL0 Copyright (c) Steve Scherf et al.
# Submitted via: ExactAudioCopy v0.90b4
#
DISCID=0a0dd614
DTITLE=Various Artist - Now Jazz X'mas
DYEAR=2000
DGENRE=Jazz
TTITLE0=MIRACLE/HOLLY COLE
TTITLE1=SANTA CLAUS IS COMING TO TOWN/KEI KOBAYASHI
TTITLE2=JINGLE BELLS/DIANNE REEVES
TTITLE3=THE CHRISTMAS SONG/NAT KING COLE
TTITLE4=RUDOLPH THE RED-NOSED REINDEER/DEAN MARTIN
TTITLE5=LET IT SNOW! LET IT SNOW! LET IT SNOW!/BING CROSBY
TTITLE6=WINTER WONDERLAND/JO STAFFORD
TTITLE7=WHITE CHRISTMAS/PEGGY LEE
TTITLE8=HAVE YOURSELF A MERRY LITTLE CHRISTMAS/KEI KOBAYASHI
TTITLE9=THE FIRST NOEL/ELLA FITZGERALD
TTITLE10=DECK THE HALLS/JO STAFFORD
TTITLE11=SILENT NIGHT/DINAH SHORE
TTITLE12=ANGELS WE HAVE HEARD ON HIGH/ELLA FITZGERALD
TTITLE13=JOY TO THE WORLD/NAT KING COLE
TTITLE14=WE WISH YOU A MERRY CHRISTMAS/BING CROSBY
TTITLE15=THE LITTLE DRUMMER BOY/LOU RAWLS
TTITLE16=O TANNENBAUM/NAT KING COLE
TTITLE17=CHRISTMAS BLUES/HOLLY COLE
TTITLE18=O HOLY NIGHT/THE BOYS CHOIR OF HARLEM feat. DIANNE REEVES
TTITLE19=WHAT ARE YOU DOING NEW YEARS EVE/KEI KOBAYASHI
EXTD=
EXTT0=
EXTT1=
EXTT2=
EXTT3=
EXTT4=
EXTT5=
EXTT6=
EXTT7=
EXTT8=
EXTT9=
EXTT10=
EXTT11=
EXTT12=
EXTT13=
EXTT14=
EXTT15=
EXTT16=
EXTT17=
EXTT18=
EXTT19=
PLAYORDER=
